<?xml version="1.0" encoding="UTF-8"?>
<svg version="1.1" xmlns="http://www.w3.org/2000/svg" width="1322" height="494">
<path d="M0 0 C22.11 0 44.22 0 67 0 C71.62 8.91 76.24 17.82 81 27 C84.68483057 34.00140691 84.68483057 34.00140691 88.375 41 C91.61260796 47.15145512 94.80411016 53.32680109 98 59.5 C102.40425888 68.00664621 106.8259729 76.50311043 111.29931641 84.97363281 C113.59312385 89.31929685 115.87315092 93.67177746 118.140625 98.03125 C118.67800293 99.06411133 119.21538086 100.09697266 119.76904297 101.16113281 C120.81092581 103.16507043 121.85168402 105.16959332 122.89111328 107.17480469 C124.97338373 111.17890027 127.06450661 115.15546648 129.3515625 119.046875 C131 122 131 122 131 124 C131.66 124 132.32 124 133 124 C133.35578125 122.79923828 133.35578125 122.79923828 133.71875 121.57421875 C135.31266361 117.12778291 137.36366237 113.01953588 139.5 108.8125 C139.94794922 107.92377197 140.39589844 107.03504395 140.85742188 106.11938477 C144.06772523 99.77475824 147.35871292 93.47536819 150.68994141 87.19360352 C155.15733702 78.74963242 159.5126679 70.2485407 163.875 61.75 C170.86370217 48.13864574 177.89797566 34.55265282 185 21 C188.63 14.07 192.26 7.14 196 0 C218.44 0 240.88 0 264 0 C264 83.49 264 166.98 264 253 C241.23 253 218.46 253 195 253 C194.67 207.46 194.34 161.92 194 115 C180.87880841 141.28199658 180.87880841 141.28199658 167.76196289 167.56616211 C165.22741699 172.63977051 165.22741699 172.63977051 164.04173279 175.01197815 C163.21104129 176.67490036 162.38114397 178.33821943 161.55186462 180.00184631 C160.29822705 182.51640163 159.04210352 185.02970029 157.78540039 187.54272461 C157.414264 188.2885955 157.04312761 189.03446638 156.66074467 189.80293941 C154.11402634 194.88597366 154.11402634 194.88597366 153 196 C151.64905018 196.09268999 150.29332909 196.11747326 148.93920898 196.11352539 C148.07839218 196.11344986 147.21757538 196.11337433 146.33067322 196.11329651 C145.39526199 196.10813522 144.45985077 196.10297394 143.49609375 196.09765625 C142.54307877 196.0962413 141.59006378 196.09482635 140.60816956 196.09336853 C137.55124835 196.08775152 134.49439923 196.07519616 131.4375 196.0625 C129.37044376 196.05748719 127.30338638 196.05292391 125.23632812 196.04882812 C120.15752578 196.03862563 115.07877198 196.01986022 110 196 C103.17698217 183.15332343 96.54360478 170.22532226 90.0546875 157.20703125 C89.14992701 155.39563798 88.24498558 153.58433507 87.33987427 151.77311707 C84.99389638 147.0773998 82.65032582 142.38048537 80.30731201 137.68328857 C77.90168412 132.86167918 75.49370213 128.04124575 73.0859375 123.22070312 C68.38836326 113.81493015 63.69333977 104.40788655 59 95 C59.38833642 96.77680182 59.7773079 98.55346639 60.1688261 100.32956982 C60.52191872 101.93475515 60.87180148 103.54064917 61.21884632 105.1471529 C62.15634499 109.43009808 63.16160305 113.66639699 64.36174011 117.88383484 C68.46688329 132.66452771 68.64948476 146.81431077 68.48828125 162.08203125 C68.47893062 164.72001976 68.47182519 167.35801708 68.46684265 169.99601746 C68.45147619 176.16854016 68.41068891 182.34060503 68.3600952 188.51292866 C68.29809016 196.2500668 68.27121674 203.98728374 68.24414062 211.72460938 C68.19584194 225.48342697 68.09562066 239.24124971 68 253 C45.56 253 23.12 253 0 253 C0 169.51 0 86.02 0 0 Z M57 91 C58 93 58 93 58 93 Z " fill="#2D4FDE" transform="translate(396,117)"/>
<path d="M0 0 C22.77 0 45.54 0 69 0 C69 33.33 69 66.66 69 101 C93.75 101 118.5 101 144 101 C144 67.67 144 34.34 144 0 C166.77 0 189.54 0 213 0 C213 83.49 213 166.98 213 253 C190.23 253 167.46 253 144 253 C144 218.68 144 184.36 144 149 C112.98 149.33 81.96 149.66 50 150 C57.55890359 156.28244446 57.55890359 156.28244446 65.63867188 161.83032227 C69.12576482 164.95136832 69.52465924 167.82731689 69.83228302 172.29257107 C69.96892616 176.7713261 69.8823013 181.23618869 69.78125 185.71484375 C69.76631747 187.65537683 69.75493523 189.59594019 69.74694824 191.53651428 C69.71649357 196.62871487 69.63798884 201.71907169 69.54931641 206.81054688 C69.45284174 212.92761381 69.41631442 219.04529949 69.36968994 225.16291046 C69.29227339 234.44322014 69.13894713 243.71948962 69 253 C46.23 253 23.46 253 0 253 C0 169.51 0 86.02 0 0 Z " fill="#2E47DA" transform="translate(678,117)"/>
<path d="M0 0 C21.9669702 -0.32819457 43.93353173 -0.57447848 65.90246296 -0.72537041 C76.10500238 -0.79732025 86.3060117 -0.89526548 96.50756836 -1.05615234 C105.40761787 -1.19644551 114.30655862 -1.28618919 123.20768327 -1.31723893 C127.91406222 -1.33536891 132.61727167 -1.3774345 137.32262611 -1.48022079 C172.36046629 -2.21629008 172.36046629 -2.21629008 184.68614674 8.66463661 C185.92449594 9.86036531 187.14274074 11.0774297 188.33538437 12.31875038 C190.80571524 14.8137665 193.5372137 16.77491036 196.37890625 18.83203125 C198.10806406 20.15716835 199.83599634 21.48390669 201.5625 22.8125 C203.33347319 24.17468942 205.1055488 25.53544721 206.87890625 26.89453125 C208.00147827 27.75848511 208.00147827 27.75848511 209.14672852 28.63989258 C210.95776313 30.04915517 210.95776313 30.04915517 213 31 C213.41873537 43.27372562 213.73769883 55.54573011 213.93261909 67.8251667 C214.02622353 73.52876699 214.15292618 79.22745218 214.35791016 84.92822266 C214.55483883 90.44004592 214.66137017 95.94717449 214.70779037 101.46224594 C214.74082212 103.55590636 214.80534215 105.64933479 214.90314102 107.74097061 C215.61684341 123.65121853 215.61684341 123.65121853 211.25008392 129.23937225 C206.98915517 133.37645708 202.23007537 136.60043385 197.16326523 139.66714096 C194.14777747 141.5250824 191.42167184 143.63923399 188.625 145.8125 C187.18667816 146.85217674 187.18667816 146.85217674 185.71929932 147.91285706 C182.96517721 149.93310277 182.96517721 149.93310277 180.65130615 152.3467865 C170.85854478 161.46317892 160.17698053 160.15555398 147.515625 159.87890625 C145.24593645 159.86209485 142.97621498 159.84929566 140.70648193 159.84031677 C134.76761776 159.80615227 128.83077307 159.71791921 122.8927002 159.61798096 C115.74932585 159.5091822 108.60527158 159.46830753 101.46130371 159.41590118 C90.63946987 159.32898284 79.82205616 159.15642158 69 159 C69 190.02 69 221.04 69 253 C46.56 253 24.12 253 1 253 C-0.14867502 234.62119961 -0.14867502 234.62119961 -0.12025452 226.07849121 C-0.12110894 225.0970185 -0.12196337 224.1155458 -0.12284368 223.10433149 C-0.1244655 219.87877937 -0.11903226 216.65328154 -0.11352539 213.42773438 C-0.11324278 211.09042868 -0.1134027 208.7531229 -0.1139679 206.41581726 C-0.11425298 200.11737094 -0.10840321 193.81894395 -0.10139394 187.52050209 C-0.09574989 181.59095873 -0.09476817 175.66141604 -0.09374207 169.73187035 C-0.09156214 157.99979147 -0.08493097 146.26771961 -0.07543945 134.53564453 C-0.0662378 123.1499027 -0.05917049 111.76416278 -0.05493164 100.37841797 C-0.05466892 99.67470359 -0.05440619 98.97098922 -0.05413551 98.24595016 C-0.05283032 94.71505544 -0.05156665 91.1841607 -0.05032361 87.65326595 C-0.03998401 58.43550608 -0.02231958 29.21775313 0 0 Z M49 49 C52.490045 52.490045 55.98041636 55.86922206 59.625 59.1875 C60.56601563 60.04730469 61.50703125 60.90710938 62.4765625 61.79296875 C64.98743196 64.08568148 64.98743196 64.08568148 68 66 C68.39872742 67.91091919 68.39872742 67.91091919 68.43237305 70.26611328 C68.45231323 71.15919189 68.47225342 72.05227051 68.49279785 72.97241211 C68.5021637 74.3821228 68.5021637 74.3821228 68.51171875 75.8203125 C68.52835571 76.68325928 68.54499268 77.54620605 68.56213379 78.43530273 C68.62005394 81.66495282 68.65221531 84.89502331 68.6875 88.125 C68.790625 95.34375 68.89375 102.5625 69 110 C93.75 110 118.5 110 144 110 C144 89.87 144 69.74 144 49 C112.65 49 81.3 49 49 49 Z " fill="#3036D3" transform="translate(1109,117)"/>
<path d="M0 0 C22.77 0 45.54 0 69 0 C69.38452908 23.97512689 69.69734301 47.94773785 69.88080692 71.9251709 C69.96827661 83.05963943 70.08740441 94.19204899 70.2824707 105.32519531 C70.4525158 115.03496295 70.56172748 124.74323909 70.59950441 134.45445442 C70.62157276 139.59214189 70.67298793 144.72556481 70.79741096 149.86187744 C71.62444871 185.32310707 71.62444871 185.32310707 62.89929104 194.48199463 C60.00521128 196.95691589 57.07631349 199.09965108 53.7612524 200.97467041 C51.83277947 201.99699339 51.83277947 201.99699339 50 204 C94.55 204.33 139.1 204.66 185 205 C185 220.84 185 236.68 185 253 C123.95 253 62.9 253 0 253 C0 169.51 0 86.02 0 0 Z " fill="#2D4ADB" transform="translate(909,117)"/>
<path d="M0 0 C2.72877425 2.38571149 3.93207696 4.7071909 5.3125 8.0390625 C5.74280518 9.07764404 6.17311035 10.11622559 6.61645508 11.1862793 C7.30130981 12.88844604 7.30130981 12.88844604 8 14.625 C8.47912842 15.81198486 8.95825684 16.99896973 9.4519043 18.22192383 C18.35243806 40.5343108 25.97884884 63.49541626 31 87 C31.32774414 88.53140625 31.32774414 88.53140625 31.66210938 90.09375 C34.8614439 105.4055211 36.97949795 120.76646108 38.56884766 136.31591797 C39.94147633 149.72511446 39.94147633 149.72511446 44.75 162.1875 C46.96910475 164.27857586 46.96910475 164.27857586 50.375 164.5625 C56.92817525 163.54562798 61.18627532 159.10841904 65.71069336 154.53222656 C66.24652542 153.99829285 66.78235748 153.46435913 67.33442688 152.91424561 C69.0911453 151.16120845 70.8405955 149.40111372 72.58984375 147.640625 C73.81966707 146.4096077 75.04986235 145.1789619 76.28041077 143.94866943 C78.85468523 141.37283437 81.42557793 138.79368745 83.99389648 136.21191406 C87.2679688 132.92089762 90.54853912 129.63645621 93.83147335 126.35428238 C96.37211539 123.81336682 98.91013051 121.26984078 101.44729805 118.72545624 C102.65503774 117.51455833 103.86336291 116.30424405 105.07230949 115.09455109 C113.5934611 106.56546923 113.5934611 106.56546923 121.63565063 97.58673096 C123.77987088 95.09301437 126.09612438 92.80930198 128.4375 90.5 C129.30246094 89.6440625 130.16742188 88.788125 131.05859375 87.90625 C131.69925781 87.2771875 132.33992188 86.648125 133 86 C133.66 86.33 134.32 86.66 135 87 C109.10479688 139.80234303 76.12514911 192.43510839 29 229 C27.83872009 229.94755571 26.68003411 230.89829595 25.5234375 231.8515625 C-16.05092185 265.97895426 -65.69985778 285.54142877 -119 291 C-120.27875 291.13277344 -121.5575 291.26554687 -122.875 291.40234375 C-125.91849567 291.67461726 -128.94742526 291.86727936 -132 292 C-133.66869141 292.07927734 -133.66869141 292.07927734 -135.37109375 292.16015625 C-161.71785846 292.81244429 -188.23707547 286.05690241 -208 267.96875 C-227.4987302 249.16818405 -235.77461273 222.77971465 -236.35449219 196.21777344 C-236.43968892 183.62894217 -235.08425365 171.40204832 -233 159 C-230.69012035 161.30987965 -230.67399272 161.98191464 -230.32421875 165.12109375 C-230.22133545 165.96462402 -230.11845215 166.8081543 -230.01245117 167.67724609 C-229.90521729 168.58812988 -229.7979834 169.49901367 -229.6875 170.4375 C-225.68764373 200.89492942 -214.58577553 229.29693037 -191 250 C-187.48258649 252.65851021 -183.87018626 254.89283976 -180 257 C-179.02675781 257.53367187 -178.05351562 258.06734375 -177.05078125 258.6171875 C-155.86210988 269.30457256 -131.66278561 269.545227 -109.1328125 263.19140625 C-85.96347229 255.45683422 -65.50790985 240.6644631 -48 224 C-47.35417969 223.40703125 -46.70835937 222.8140625 -46.04296875 222.203125 C-7.67232595 185.89928498 2.48315749 127.51770692 3.95184326 77.26269531 C4.44473875 54.10347939 2.70910532 31.02030604 0.25952148 8.00976562 C0.0275086 5.31902735 -0.04989042 2.69847551 0 0 Z " fill="#00CCF9" transform="translate(236,78)"/>
<path d="M0 0 C14.85 0 29.7 0 45 0 C45.13630723 14.10989567 45.24606301 28.21934412 45.31087303 42.32975292 C45.34200038 48.88390526 45.3841293 55.43757841 45.45263672 61.99145508 C45.51849729 68.33280871 45.5538453 74.67370551 45.56926346 81.01537514 C45.58023124 83.41796356 45.6016433 85.82053095 45.63438034 88.22292137 C46.15093823 127.75262157 28.66009084 164.48072735 2.42578125 193.59375 C1 195 1 195 0 195 C0 130.65 0 66.3 0 0 Z " fill="#3034D2" transform="translate(177,98)"/>
<path d="M0 0 C15.18 0 30.36 0 46 0 C46.33916276 18.45497643 46.61522366 36.90741436 46.77718258 55.36472034 C46.85439617 63.93560995 46.95956942 72.50442024 47.1315918 81.07397461 C47.28153281 88.54710222 47.37797007 96.01872392 47.41132742 103.49331397 C47.43081828 107.44875783 47.47628651 111.3998957 47.58595085 115.35395241 C48.27950114 141.34525322 48.27950114 141.34525322 42.73069763 147.33250427 C39.66572249 149.88713419 36.44261746 151.69437074 32.77347469 153.23723793 C30.38588661 154.26412692 28.30988781 155.65967139 26.16796875 157.12109375 C24.84727568 157.9036677 23.5206402 158.67632371 22.1875 159.4375 C21.12559448 160.05214111 21.12559448 160.05214111 20.04223633 160.67919922 C7.1756863 168 7.1756863 168 0 168 C0 112.56 0 57.12 0 0 Z " fill="#2C54DF" transform="translate(121,161)"/>
<path d="M0 0 C16.83 0 33.66 0 51 0 C51 16.83 51 33.66 51 51 C43.125 44.25 43.125 44.25 39.81640625 40.9140625 C39.11708984 40.21152344 38.41777344 39.50898437 37.69726562 38.78515625 C36.99279297 38.07230469 36.28832031 37.35945313 35.5625 36.625 C34.83095703 35.88894531 34.09941406 35.15289062 33.34570312 34.39453125 C31.56147277 32.59863926 29.77963876 30.80044015 28 29 C26.73709894 29.92500301 25.47729092 30.85422962 24.21875 31.78515625 C23.1659082 32.56064819 23.1659082 32.56064819 22.09179688 33.35180664 C19.4282515 35.45049885 17.12200332 37.79588396 14.765625 40.2265625 C12.36673878 42.63606326 9.8080829 44.83120757 7.234375 47.05078125 C4.62148624 49.33020694 2.06069979 51.66212353 -0.5 54 C-4.28662998 57.45328153 -8.1047632 60.86099051 -11.97265625 64.22265625 C-14.33489173 66.29359487 -16.66795853 68.39512848 -19 70.5 C-22.60091072 73.74906601 -26.20856123 76.98601362 -29.90357971 80.12805176 C-32.03033836 81.97276174 -32.03033836 81.97276174 -33.93785095 84.05822754 C-37.91582875 88.10937683 -40.83666059 90.49427217 -46.61157227 90.90820312 C-48.68028219 90.90623081 -50.74931546 90.86310541 -52.81640625 90.78125 C-53.79025269 90.77319336 -54.76409912 90.76513672 -55.76745605 90.75683594 C-59.36658301 90.71532966 -62.96462608 90.60363821 -66.5625 90.5 C-74.626875 90.335 -82.69125 90.17 -91 90 C-91 110.79 -91 131.58 -91 153 C-109.48 153 -127.96 153 -147 153 C-147 167.85 -147 182.7 -147 198 C-152.22263672 197.89945312 -152.22263672 197.89945312 -157.55078125 197.796875 C-160.95336661 197.77284 -164.35539538 197.76948172 -167.75805664 197.76806641 C-170.10820036 197.75612117 -172.45834192 197.72294862 -174.80786133 197.66748047 C-188.59791041 196.74190483 -188.59791041 196.74190483 -200.93261719 201.61083984 C-203.7685561 204.43012726 -205.88854559 207.60757252 -208 211 C-209.18084705 212.39867605 -210.38299694 213.78033542 -211.625 215.125 C-212.16382813 215.74632812 -212.70265625 216.36765625 -213.2578125 217.0078125 C-215.31500399 219.36020635 -217.40596915 221.68034966 -219.5 224 C-225.12189109 230.2337976 -230.65773802 236.52453093 -236 243 C-240.24822374 242.52797514 -242.19989709 240.03344482 -245 237 C-243.64891034 234.03674056 -242.11293352 231.79214835 -239.9375 229.375 C-239.31488281 228.67890625 -238.69226563 227.9828125 -238.05078125 227.265625 C-237.37402344 226.51796875 -236.69726562 225.7703125 -236 225 C-234.93845703 223.81664062 -234.93845703 223.81664062 -233.85546875 222.609375 C-230.80112823 219.20734247 -227.73602973 215.81506648 -224.671875 212.421875 C-221.25694362 208.63525041 -217.85013474 204.84416383 -214.5 201 C-213.68366089 200.11103027 -213.68366089 200.11103027 -212.85083008 199.20410156 C-210.92625972 197.03308439 -210.92625972 197.03308439 -209.48266602 194.44384766 C-206.87434891 190.57812048 -204.44418016 187.56548617 -199.72015381 186.47253418 C-192.96342787 185.7320579 -186.21449124 186.09647663 -179.4375 186.375 C-168.8259375 186.684375 -168.8259375 186.684375 -158 187 C-158 172.15 -158 157.3 -158 142 C-139.52 142 -121.04 142 -102 142 C-102 121.21 -102 100.42 -102 79 C-74.75 79.1875 -74.75 79.1875 -66.22167969 79.33276367 C-52.20621737 79.84782971 -52.20621737 79.84782971 -39.94476318 74.15571594 C-37.74385458 71.92589078 -35.86403734 69.51419872 -34 67 C-32.67917839 65.77551894 -31.33149074 64.57798824 -29.9375 63.4375 C-26.74755391 60.6719958 -23.61907011 57.84524228 -20.5 55 C-16.71337002 51.54671847 -12.8952368 48.13900949 -9.02734375 44.77734375 C-6.66510827 42.70640513 -4.33204147 40.60487152 -2 38.5 C4.58022939 32.56469355 11.26211791 26.75527429 18 21 C16.5757048 17.74220734 14.84375932 15.61880869 12.3046875 13.14453125 C11.58925781 12.44005859 10.87382812 11.73558594 10.13671875 11.00976562 C9.01716797 9.92211914 9.01716797 9.92211914 7.875 8.8125 C6.39110476 7.36284849 4.90921416 5.91114109 3.4296875 4.45703125 C2.77210449 3.81741455 2.11452148 3.17779785 1.43701172 2.51879883 C0 1 0 1 0 0 Z " fill="#0BB46F" transform="translate(253,0)"/>
<path d="M0 0 C15.18 0 30.36 0 46 0 C46 40.26 46 80.52 46 122 C29.5911326 124.34412391 14.99453652 123.49726826 0 116 C0 77.72 0 39.44 0 0 Z " fill="#2871EB" transform="translate(66,210)"/>
<path d="M0 0 C6.96790854 5.04795851 11.60207902 11.36960009 13.5234375 19.828125 C14.43405924 28.61515539 14.2359052 36.2168696 9.5234375 43.828125 C9.1728125 44.45074219 8.8221875 45.07335937 8.4609375 45.71484375 C4.62413184 51.85639725 -1.15771716 55.42399813 -7.7265625 58.203125 C-18.95922914 60.07523611 -28.75457234 59.4039342 -38.1640625 52.765625 C-43.63926461 48.25889121 -48.2579981 41.94710649 -49.4765625 34.828125 C-50.41952808 24.22871439 -49.90247828 15.802485 -43.4765625 6.828125 C-41.05148507 4.0268301 -38.55476611 1.88216793 -35.4765625 -0.171875 C-34.84492188 -0.60371094 -34.21328125 -1.03554687 -33.5625 -1.48046875 C-23.45146218 -7.121569 -9.66949123 -5.66923596 0 0 Z " fill="#00CCF9" transform="translate(326.4765625,140.171875)"/>
<path d="M0 0 C7.26 0 14.52 0 22 0 C22.28875 2.619375 22.5775 5.23875 22.875 7.9375 C23.87407713 16.96344344 24.92704063 25.98257551 26 35 C32.36399086 23.34967708 38.72323372 11.69760989 45 0 C52.26 0 59.52 0 67 0 C66.67 1.32 66.34 2.64 66 4 C65.01 4.33 64.02 4.66 63 5 C62.22319421 7.4477309 61.671631 9.73877626 61.1875 12.25 C60.94918457 13.40798096 60.94918457 13.40798096 60.70605469 14.58935547 C60.34187416 16.36226795 59.98307449 18.1362906 59.62841797 19.91113281 C58.91799638 23.40307294 58.16560116 26.88471618 57.41015625 30.3671875 C56.85617061 32.95299648 56.3027854 35.53893417 55.75 38.125 C55.34430786 39.99140137 55.34430786 39.99140137 54.93041992 41.89550781 C53.63739447 48.05308896 52.6546794 53.70574721 53 60 C53.66 60.33 54.32 60.66 55 61 C55 62.32 55 63.64 55 65 C47.41 65 39.82 65 32 65 C32 63.68 32 62.36 32 61 C32.61584961 60.58951416 33.23169922 60.17902832 33.86621094 59.75610352 C37.06059398 57.12713359 37.35781009 53.78584836 38.140625 49.90234375 C38.31253357 49.11227432 38.48444214 48.3222049 38.66156006 47.50819397 C39.2060135 44.98756753 39.72796071 42.46285303 40.25 39.9375 C40.61577277 38.23341968 40.98294446 36.52963899 41.3515625 34.82617188 C43.19159532 27.46962163 43.19159532 27.46962163 44 20 C43.61255615 20.72477539 43.2251123 21.44955078 42.82592773 22.19628906 C41.35342736 24.94822525 39.8788906 27.69905859 38.40307617 30.44921875 C37.46446629 32.19970838 36.52809814 33.95139945 35.59179688 35.703125 C34.35873638 37.99961861 33.11304087 40.28937161 31.85498047 42.57226562 C30.61365377 44.86605699 29.42498503 47.18909747 28.28955078 49.53710938 C27.73122559 50.63345703 27.17290039 51.72980469 26.59765625 52.859375 C26.11949463 53.84905273 25.64133301 54.83873047 25.14868164 55.85839844 C23 58 23 58 14 58 C12.68 45.13 11.36 32.26 10 19 C8.824375 24.836875 7.64875 30.67375 6.4375 36.6875 C6.06294678 38.52143311 5.68839355 40.35536621 5.30249023 42.24487305 C5.01209981 43.70867139 4.72241992 45.17261095 4.43359375 46.63671875 C4.19920593 47.76430603 4.19920593 47.76430603 3.96008301 48.91467285 C3.1914083 52.86123297 2.65066867 56.14838972 4 60 C4.66 60.33 5.32 60.66 6 61 C6 62.32 6 63.64 6 65 C0.06 65 -5.88 65 -12 65 C-11 61 -11 61 -9.08496094 59.3425293 C-5.96324044 55.835163 -5.53549584 52.04771167 -4.640625 47.51953125 C-4.44652039 46.59210617 -4.25241577 45.66468109 -4.0524292 44.70915222 C-3.6453904 42.74793811 -3.24575676 40.78517449 -2.85302734 38.82104492 C-2.25489221 35.83690757 -1.63141585 32.85894206 -1.00390625 29.88085938 C-0.61045524 27.96906299 -0.21848067 26.05696205 0.171875 24.14453125 C0.3561908 23.26295853 0.54050659 22.3813858 0.73040771 21.47309875 C1.8348287 15.878884 2.16854093 10.70266162 2 5 C1.34 4.67 0.68 4.34 0 4 C0 2.68 0 1.36 0 0 Z M45 16 C46 18 46 18 46 18 Z " fill="#000000" transform="translate(208,408)"/>
<path d="M0 0 C7.92 0 15.84 0 24 0 C22 5 22 5 20.44580078 6.55249023 C18.63434601 8.3660862 18.36743023 9.66531334 17.8671875 12.16015625 C17.70089844 12.95357422 17.53460937 13.74699219 17.36328125 14.56445312 C17.20214844 15.38880859 17.04101562 16.21316406 16.875 17.0625 C16.5411986 18.69965573 16.2053566 20.33639712 15.8671875 21.97265625 C15.72394043 22.69718994 15.58069336 23.42172363 15.43310547 24.16821289 C15 26 15 26 14 28 C19.94 28 25.88 28 32 28 C32.33 25.36 32.66 22.72 33 20 C33.2784375 18.824375 33.2784375 18.824375 33.5625 17.625 C34.26046418 13.43721491 34.07402048 9.23561622 34 5 C33.34 4.67 32.68 4.34 32 4 C32 2.68 32 1.36 32 0 C39.92 0 47.84 0 56 0 C54.23310896 4.41722759 53.92285139 5.08747442 51 8 C50.24678868 9.91784729 50.24678868 9.91784729 49.84912109 12.0690918 C49.67238861 12.88391525 49.49565613 13.69873871 49.31356812 14.53825378 C49.13532501 15.41637222 48.95708191 16.29449066 48.7734375 17.19921875 C48.58028961 18.10823441 48.38714172 19.01725006 48.18814087 19.95381165 C47.78130071 21.87850394 47.37985412 23.80434305 46.98339844 25.73120117 C46.38041691 28.66117843 45.76209857 31.58756714 45.140625 34.51367188 C44.74648831 36.38783021 44.35323104 38.26217375 43.9609375 40.13671875 C43.77864594 41.00471603 43.59635437 41.87271332 43.40853882 42.76701355 C42.36958122 47.83038932 41.42448066 52.84461387 41 58 C42.35444301 59.77190909 42.35444301 59.77190909 44 61 C44 62.32 44 63.64 44 65 C36.08 65 28.16 65 20 65 C21 61 21 61 22.96972656 59.07519531 C25.3529424 56.63924839 25.79292159 55.10048571 26.484375 51.796875 C26.69707031 50.8171875 26.90976562 49.8375 27.12890625 48.828125 C27.33386719 47.81234375 27.53882813 46.7965625 27.75 45.75 C28.08064453 44.203125 28.08064453 44.203125 28.41796875 42.625 C28.9586524 40.08613764 29.48111111 37.54340622 30 35 C21.585 35.495 21.585 35.495 13 36 C10.40035755 47.89050913 10.40035755 47.89050913 10 60 C10.66 60.33 11.32 60.66 12 61 C12 62.32 12 63.64 12 65 C4.08 65 -3.84 65 -12 65 C-11 61 -11 61 -9.05102539 59.17236328 C-6.36632466 56.32883667 -5.98425401 54.05264764 -5.18359375 50.2421875 C-5.04163071 49.58547562 -4.89966766 48.92876373 -4.75340271 48.25215149 C-4.29913721 46.12938468 -3.86729689 44.00284446 -3.4375 41.875 C-3.13430469 40.41953625 -2.83042942 38.96421399 -2.52587891 37.5090332 C-1.66080808 33.34382222 -0.82889168 29.17255645 0 25 C0.21672363 23.93861816 0.43344727 22.87723633 0.65673828 21.78369141 C1.16862299 19.25518413 1.65532332 16.7241344 2.125 14.1875 C2.26623291 13.47899902 2.40746582 12.77049805 2.55297852 12.04052734 C2.95750521 9.92181491 2.95750521 9.92181491 3 7 C1.62094363 5.28201377 1.62094363 5.28201377 0 4 C0 2.68 0 1.36 0 0 Z " fill="#000000" transform="translate(522,408)"/>
<path d="M0 0 C6.08480953 5.54152297 7.53073682 11.28204094 8.03125 19.21875 C7.94936749 29.12653321 5.88255783 39.3198972 1 48 C0.13375 49.546875 0.13375 49.546875 -0.75 51.125 C-5.52880122 57.23124601 -11.16217082 62.60881637 -19 64 C-34.02027554 65.31901432 -34.02027554 65.31901432 -40.41796875 61.40234375 C-45.57875368 56.82772204 -47.63339155 51.33584998 -48.203125 44.59765625 C-48.45987108 30.71197234 -44.99103866 16.67598244 -36.15234375 5.70703125 C-27.02490296 -3.08305033 -11.30401844 -6.91086582 0 0 Z M-24 10 C-30.4173505 20.91099874 -33.18001987 32.45355221 -33.5 45 C-33.53077637 45.71833008 -33.56155273 46.43666016 -33.59326172 47.17675781 C-33.59419763 51.15062202 -33.12145308 52.84723635 -30.62109375 55.9921875 C-28.22663982 58.21918584 -28.22663982 58.21918584 -25.5625 58.125 C-17.30798307 54.50106574 -14.22121626 48.1073308 -11 40 C-7.55037704 30.05514101 -3.73024481 16.11822812 -8.32421875 6.1171875 C-9.903334 3.65901386 -9.903334 3.65901386 -13.25 3.3125 C-18.34328125 4.24626823 -20.80239075 5.95704578 -24 10 Z " fill="#000000" transform="translate(991,410)"/>
<path d="M0 0 C4.39807218 3.23784455 6.93106827 8.09397065 7.91015625 13.40625 C9.02958196 26.98616839 6.72436156 41.00311001 -1.08984375 52.40625 C-1.64671875 53.293125 -2.20359375 54.18 -2.77734375 55.09375 C-9.69927096 62.01567721 -16.90472143 64.54175752 -26.46484375 64.65625 C-27.75132813 64.68203125 -29.0378125 64.7078125 -30.36328125 64.734375 C-35.91466231 64.24557415 -39.01712154 62.52773231 -42.83984375 58.53125 C-48.90199926 50.11158957 -48.18780449 39.30004896 -46.80126953 29.33154297 C-44.86661034 19.23755604 -40.29632969 9.47446965 -32.21484375 2.90625 C-22.68635247 -3.40956989 -10.45823574 -5.31452996 0 0 Z M-22.08984375 8.40625 C-30.17122322 18.06324434 -33.18042989 33.260305 -33.33984375 45.46875 C-33.365625 46.65597656 -33.39140625 47.84320313 -33.41796875 49.06640625 C-33.06169208 52.69279379 -32.29204573 54.53495794 -30.08984375 57.40625 C-27.74111844 58.57602494 -27.74111844 58.57602494 -25.08984375 58.40625 C-19.25047036 56.01060964 -15.45211746 51.1423096 -12.703125 45.62109375 C-8.58676111 35.64540109 -3.65745242 20.94256676 -6.7109375 10.2265625 C-8.07803775 7.10424801 -8.07803775 7.10424801 -10.08984375 4.40625 C-15.62070031 3.87443687 -18.23859606 4.35230507 -22.08984375 8.40625 Z " fill="#000000" transform="translate(82.08984375,409.59375)"/>
<path d="M0 0 C5.61 0 11.22 0 17 0 C17 2.31 17 4.62 17 7 C17.48210938 6.57847656 17.96421875 6.15695312 18.4609375 5.72265625 C19.09257813 5.17480469 19.72421875 4.62695312 20.375 4.0625 C21.31472656 3.24458984 21.31472656 3.24458984 22.2734375 2.41015625 C25.84081366 -0.50346998 29.04112198 -0.38779897 33.515625 -0.35546875 C36 0 36 0 39.0625 2.3125 C43.61538184 8.62778772 42.60868397 17.50196564 42 25 C40.32214808 34.07657245 36.51808271 40.72166274 29.2265625 46.375 C23.25901399 50.00085226 16.76192117 49.37108104 10 49 C8.69780188 52.65250693 7.72618447 56.01197084 7.375 59.875 C7.30023437 60.65617187 7.22546875 61.43734375 7.1484375 62.2421875 C7.09945312 62.82226562 7.05046875 63.40234375 7 64 C8.32 64.33 9.64 64.66 11 65 C11 66.32 11 67.64 11 69 C4.4 69 -2.2 69 -9 69 C-7.90682261 61.10749947 -6.50118392 53.35896842 -4.8359375 45.5703125 C-4.63808655 44.64426208 -4.4402356 43.71821167 -4.23638916 42.76409912 C-3.40818938 38.90338345 -2.57493875 35.0438025 -1.73535156 31.18554688 C-1.11682367 28.33593453 -0.50711785 25.48454202 0.1015625 22.6328125 C0.2921524 21.7691507 0.48274231 20.90548889 0.67910767 20.01565552 C1.69476068 15.23117681 2.20026184 10.89116876 2 6 C1.01 5.67 0.02 5.34 -1 5 C-0.67 3.35 -0.34 1.7 0 0 Z M19.4375 11.1875 C13.52584041 18.46437945 10.48164341 29.61774573 11 39 C11.91598289 41.22493902 11.91598289 41.22493902 13 43 C15.78839304 43.50265692 15.78839304 43.50265692 19 43 C24.58330613 37.94843731 27.63415792 30.35144416 29 23 C29.0930391 20.60561131 29.1299662 18.20869048 29.125 15.8125 C29.12757813 14.56082031 29.13015625 13.30914062 29.1328125 12.01953125 C29.345842 9.12072464 29.345842 9.12072464 28 8 C23.87335002 7.53842145 22.18698628 8.09353053 19.4375 11.1875 Z " fill="#000000" transform="translate(677,425)"/>
<path d="M0 0 C5.94 0 11.88 0 18 0 C17.67 2.31 17.34 4.62 17 7 C17.48210938 6.57847656 17.96421875 6.15695312 18.4609375 5.72265625 C19.09257813 5.17480469 19.72421875 4.62695312 20.375 4.0625 C21.31472656 3.24458984 21.31472656 3.24458984 22.2734375 2.41015625 C25.85573956 -0.51566059 29.03217795 -0.33562107 33.51953125 -0.27734375 C37.10423032 0.12346512 38.69439899 1.26209881 41 4 C45.0533901 11.91376163 43.32961722 21.85294065 41.03515625 30.0703125 C38.35868748 37.6452241 34.94623887 43.21717333 27.83203125 47.16015625 C24.05464172 48.89179537 21.05254253 49.1350001 16.9375 49.125 C15.87402344 49.12757813 14.81054688 49.13015625 13.71484375 49.1328125 C11 49 11 49 9 48 C8.67 52.95 8.34 57.9 8 63 C9.485 63.99 9.485 63.99 11 65 C11 66.32 11 67.64 11 69 C4.73 69 -1.54 69 -8 69 C-7.42235863 61.28297981 -6.32616987 53.91095476 -4.71484375 46.34765625 C-4.49429825 45.28510117 -4.27375275 44.22254608 -4.04652405 43.12779236 C-3.34930151 39.77145652 -2.64410297 36.41687247 -1.9375 33.0625 C-1.22811177 29.68298312 -0.52055572 26.3031211 0.18223572 22.92222595 C0.61779066 20.82792869 1.05722581 18.73443374 1.50099182 16.64186096 C1.79646156 15.22404579 1.79646156 15.22404579 2.09790039 13.77758789 C2.27253311 12.94916885 2.44716583 12.12074982 2.62709045 11.26722717 C3.10819838 8.72512047 3.10819838 8.72512047 3 5 C1.68 5 0.36 5 -1 5 C-0.67 3.35 -0.34 1.7 0 0 Z M21.5625 9.375 C13.72268528 17.40602971 11.74732836 28.10856404 11.83203125 38.93359375 C11.87566489 41.06239522 11.87566489 41.06239522 13 43 C16.63347734 43.42249737 18.47049014 43.34870161 21.5625 41.3125 C28.5365035 33.45828246 30.4985387 21.13695351 30 11 C29.34 10.01 28.68 9.02 28 8 C24.11422287 7.67245254 24.11422287 7.67245254 21.5625 9.375 Z " fill="#000000" transform="translate(627,425)"/>
<path d="M0 0 C6.27 0 12.54 0 19 0 C17.61461219 8.73860002 15.91654124 17.36278747 14 26 C14.94875 25.195625 15.8975 24.39125 16.875 23.5625 C21.0918657 19.98733125 24.02664738 19.6513201 29.51953125 19.72265625 C33.10423032 20.12346512 34.69439899 21.26209881 37 24 C41.1250328 32.05363546 39.2217923 41.93366614 36.9140625 50.26953125 C34.44716987 57.63858232 30.22315347 63.27295821 23.5 67.3125 C17.99203836 69.90386481 11.94683242 69.65483686 6 69 C4.66001953 68.43152344 4.66001953 68.43152344 3.29296875 67.8515625 C2.53628906 67.57054687 1.77960938 67.28953125 1 67 C-0.485 67.99 -0.485 67.99 -2 69 C-5.1875 69.125 -5.1875 69.125 -8 69 C-7.47254432 61.36215561 -6.34305716 54.0422148 -4.71484375 46.56640625 C-4.49429825 45.52604721 -4.27375275 44.48568817 -4.04652405 43.4138031 C-3.34950941 40.12872361 -2.6442257 36.84550286 -1.9375 33.5625 C-1.22804143 30.25433968 -0.5204805 26.94581457 0.18223572 23.63621521 C0.61769497 21.5863943 1.05712476 19.53741188 1.50099182 17.48939514 C1.69797165 16.56420578 1.89495148 15.63901642 2.09790039 14.68579102 C2.27253311 13.87513687 2.44716583 13.06448273 2.62709045 12.22926331 C3.10999123 9.71917584 3.10999123 9.71917584 3 6 C1.68 5.34 0.36 4.68 -1 4 C-0.67 2.68 -0.34 1.36 0 0 Z M17.5625 29.375 C9.72268528 37.40602971 7.74732836 48.10856404 7.83203125 58.93359375 C7.87566489 61.06239522 7.87566489 61.06239522 9 63 C12.77460695 63.43890778 14.48761778 63.3659873 17.625 61.125 C24.02291714 52.70668798 26.7219114 41.46771526 26 31 C25.34 30.01 24.68 29.02 24 28 C20.11422287 27.67245254 20.11422287 27.67245254 17.5625 29.375 Z " fill="#000000" transform="translate(1155,405)"/>
<path d="M0 0 C4.55315922 -0.09958121 9.10567152 -0.17179985 13.65966797 -0.21972656 C15.20567887 -0.23972503 16.75161527 -0.26693331 18.29736328 -0.30175781 C34.25458104 -0.65201308 34.25458104 -0.65201308 41 4 C44.36966484 7.47836371 44.87978586 10.46726977 45.25 15.1875 C44.80632852 21.95349012 42.95954621 28.17821896 38 33 C29.76406542 38.76515421 20.82842811 39.37640788 11 39 C10.90912109 39.90878906 10.90912109 39.90878906 10.81640625 40.8359375 C10.73261719 41.67382812 10.64882812 42.51171875 10.5625 43.375 C10.47226563 44.27992188 10.38203125 45.18484375 10.2890625 46.1171875 C10.09842224 48.01843767 9.90575903 49.91948623 9.7109375 51.8203125 C9.62070313 52.70460938 9.53046875 53.58890625 9.4375 54.5 C9.31181641 55.72203125 9.31181641 55.72203125 9.18359375 56.96875 C8.96999411 58.99205836 8.96999411 58.99205836 9 61 C9.99 61 10.98 61 12 61 C12 62.32 12 63.64 12 65 C4.08 65 -3.84 65 -12 65 C-11 61 -11 61 -9.55078125 59.6484375 C-5.63882517 55.49013657 -5.20967484 47.50604136 -4 42 C-3.74750488 40.85756836 -3.49500977 39.71513672 -3.23486328 38.53808594 C-2.39294199 34.69485733 -1.56837381 30.84830828 -0.75 27 C-0.47953857 25.74783691 -0.20907715 24.49567383 0.06958008 23.20556641 C1.35783425 17.01846351 2.34771804 11.32214617 2 5 C1.34 4.67 0.68 4.34 0 4 C0 2.68 0 1.36 0 0 Z M18 6 C17.16159002 9.76972318 16.3301451 13.5409489 15.5 17.3125 C15.26152344 18.38435547 15.02304688 19.45621094 14.77734375 20.56054688 C14.55175781 21.58857422 14.32617188 22.61660156 14.09375 23.67578125 C13.77954102 25.0975769 13.77954102 25.0975769 13.45898438 26.5480957 C12.90800051 29.07571418 12.90800051 29.07571418 13 32 C18.01615953 32.29506821 20.99681229 32.13763361 25 29 C28.79795131 24.7800541 30.14819293 21.70430823 30.25 16.0625 C30.27578125 15.20785156 30.3015625 14.35320312 30.328125 13.47265625 C29.90327423 10.27110225 29.48038963 9.1159049 27 7 C24.00949277 6.36377125 21.05114437 6.12793058 18 6 Z " fill="#000000" transform="translate(1054,408)"/>
<path d="M0 0 C11.88 0 23.76 0 36 0 C36 20.79 36 41.58 36 63 C22.04041308 57.41616523 13.49711437 41.99110902 7.68041992 28.79956055 C3.66651593 19.3409346 0 10.38754098 0 0 Z " fill="#267CF0" transform="translate(21,257)"/>
<path d="M0 0 C6.27 0 12.54 0 19 0 C17.87823062 10.09592445 17.87823062 10.09592445 16.80859375 14.62890625 C16.47504883 16.08780273 16.47504883 16.08780273 16.13476562 17.57617188 C15.66885456 19.57162852 15.20009063 21.56642116 14.72851562 23.56054688 C13.44678145 29.19195619 12.73215333 34.22412686 13 40 C16.62115642 39.79307678 17.92807081 39.06679139 20.625 36.5625 C25.94819828 29.56709283 26.91991328 19.26970186 28.6875 10.875 C28.91244141 9.823125 29.13738281 8.77125 29.36914062 7.6875 C29.91641748 5.12577855 30.4587325 2.5629979 31 0 C35.62 0 40.24 0 45 0 C43.52564291 9.2250661 41.70709305 18.32182313 39.6796875 27.43945312 C38.53795225 32.74376479 37.70910243 37.5724638 38 43 C38.99 43.33 39.98 43.66 41 44 C41 45.32 41 46.64 41 48 C35.06 48 29.12 48 23 48 C23 46.02 23 44.04 23 42 C22.27683594 42.63228516 22.27683594 42.63228516 21.5390625 43.27734375 C20.90742187 43.82519531 20.27578125 44.37304688 19.625 44.9375 C18.99851562 45.48277344 18.37203125 46.02804687 17.7265625 46.58984375 C14.16051932 49.50238128 10.95997182 49.40317513 6.484375 49.33203125 C4 49 4 49 0.9375 47.0625 C-4.15835282 39.0077649 -1.32284025 29.78876343 0.5 21.0625 C0.99533735 18.63788716 1.48522094 16.21215155 1.96875 13.78515625 C2.18982422 12.72176025 2.41089844 11.65836426 2.63867188 10.56274414 C3.24493518 8.01678174 3.24493518 8.01678174 2 6 C1.01 5.67 0.02 5.34 -1 5 C-0.67 3.35 -0.34 1.7 0 0 Z " fill="#000000" transform="translate(95,425)"/>
<path d="M0 0 C6.27 0 12.54 0 19 0 C18.30333261 8.68031554 16.62117331 16.94140456 14.72851562 25.4296875 C14.50744141 26.44804687 14.28636719 27.46640625 14.05859375 28.515625 C13.85548584 29.42602539 13.65237793 30.33642578 13.44311523 31.27441406 C12.96346046 34.22475341 12.92570228 37.01602827 13 40 C15.64309029 39.92226205 17.44385053 39.46179459 19.49658203 37.75732422 C24.15867464 32.69756038 25.4871927 27.85130687 26.75 21.1875 C26.94464844 20.25357422 27.13929687 19.31964844 27.33984375 18.35742188 C27.91514961 15.57548987 28.46016039 12.78900771 29 10 C29.37904368 8.1000277 29.75918724 6.20027437 30.140625 4.30078125 C30.42421875 2.88152344 30.7078125 1.46226562 31 0 C35.62 0 40.24 0 45 0 C44.2466278 8.73530296 42.3653955 17.16884021 40.50854492 25.72705078 C40.09395831 27.64525886 39.68557382 29.56480409 39.27734375 31.484375 C38.90984009 33.18158691 38.90984009 33.18158691 38.53491211 34.91308594 C38.05346529 37.69145815 37.89280531 40.18999125 38 43 C38.99 43.33 39.98 43.66 41 44 C41 45.32 41 46.64 41 48 C35.06 48 29.12 48 23 48 C23 46.35 23 44.7 23 43 C22.071875 43.804375 21.14375 44.60875 20.1875 45.4375 C15.95273379 49.10763072 11.91202541 49.43611898 6.453125 49.31640625 C4 49 4 49 0.875 47.3125 C-4.02195686 38.66120955 -0.58732124 27.78186836 1.57592773 18.62451172 C2.58764324 14.31403687 3.22944261 10.46696089 3 6 C2.01 5.67 1.02 5.34 0 5 C0 3.35 0 1.7 0 0 Z M24 40 C25 42 25 42 25 42 Z " fill="#000000" transform="translate(1100,425)"/>
<path d="M0 0 C5.94 0 11.88 0 18 0 C18 1.98 18 3.96 18 6 C18.53367187 5.566875 19.06734375 5.13375 19.6171875 4.6875 C24.63471026 0.93737918 28.41930331 -0.94963165 34.76171875 -0.515625 C38.45504518 0.33519365 39.94434633 1.88336379 42 5 C43.93425869 12.03720249 41.9531421 18.68633586 40.5 25.6875 C40.002684 28.10649605 39.51276197 30.52702732 39.03125 32.94921875 C38.81017578 34.01487061 38.58910156 35.08052246 38.36132812 36.1784668 C38.01479168 38.884495 37.8906888 40.51521495 39 43 C39.99 43.33 40.98 43.66 42 44 C41.67 45.32 41.34 46.64 41 48 C34.73 48 28.46 48 22 48 C23.2050173 39.46446081 24.74998413 31.11310923 26.67871094 22.71362305 C27.71852011 18.0221967 28.19223289 13.80582224 28 9 C24.33754868 9.20928293 23.07436933 9.92917206 20.375 12.5 C15.16117707 19.36784936 14.0322295 28.82754151 12.3125 37.0625 C12.08755859 38.11888672 11.86261719 39.17527344 11.63085938 40.26367188 C11.08263905 42.84147381 10.54066883 45.42060364 10 48 C5.38 48 0.76 48 -4 48 C-3.21036021 43.68712005 -2.41835506 39.37469672 -1.625 35.0625 C-1.40328125 33.85013672 -1.1815625 32.63777344 -0.953125 31.38867188 C0.00549198 26.18676503 0.97129756 20.9993971 2.15625 15.84375 C2.91092273 12.40579643 3.17948981 9.50005123 3 6 C2.01 5.67 1.02 5.34 0 5 C0 3.35 0 1.7 0 0 Z " fill="#000000" transform="translate(448,425)"/>
<path d="M0 0 C1.10988281 -0.01417969 2.21976563 -0.02835937 3.36328125 -0.04296875 C6.7836836 0.19416843 9.49723443 0.96641499 12.6875 2.1875 C13.3475 1.5275 14.0075 0.8675 14.6875 0.1875 C18.3125 0.0625 18.3125 0.0625 21.6875 0.1875 C20.18543126 9.63969777 18.34196541 18.99582133 16.3671875 28.359375 C16.150625 29.41382813 15.9340625 30.46828125 15.7109375 31.5546875 C15.51419434 32.49425293 15.31745117 33.43381836 15.11474609 34.40185547 C14.65946033 37.37031865 14.61506606 40.18895611 14.6875 43.1875 C15.6775 43.5175 16.6675 43.8475 17.6875 44.1875 C17.6875 45.5075 17.6875 46.8275 17.6875 48.1875 C11.7475 48.1875 5.8075 48.1875 -0.3125 48.1875 C-0.3125 46.5375 -0.3125 44.8875 -0.3125 43.1875 C-1.240625 43.991875 -2.16875 44.79625 -3.125 45.625 C-7.36949822 49.30356512 -11.40164269 49.58283472 -16.86328125 49.54296875 C-19.3125 49.1875 -19.3125 49.1875 -22.375 46.875 C-26.78840236 40.75318382 -25.81773061 32.45811252 -25.3125 25.1875 C-23.87988034 16.53537967 -20.17045449 9.14417218 -13.1875 3.75 C-8.78973562 0.60996201 -5.37762625 0.03101284 0 0 Z M-6.3125 10.1875 C-11.56504935 19.40662972 -13.00786329 28.67619443 -12.3125 39.1875 C-11.9825 39.8475 -11.6525 40.5075 -11.3125 41.1875 C-8.31704714 41.47572227 -6.83303138 41.58692816 -4.3984375 39.71875 C-0.50800499 35.09997168 2.12158655 31.03210656 3.6875 25.1875 C3.89117188 24.44242187 4.09484375 23.69734375 4.3046875 22.9296875 C5.45119322 18.29654793 6.07130103 13.98501283 5.6875 9.1875 C5.0275 8.1975 4.3675 7.2075 3.6875 6.1875 C-0.92852018 5.31419888 -3.17092141 6.88481482 -6.3125 10.1875 Z " fill="#000000" transform="translate(599.3125,424.8125)"/>
<path d="M0 0 C-0.14107747 1.45880109 -0.28802415 2.91703551 -0.4375 4.375 C-0.51871094 5.18710937 -0.59992187 5.99921875 -0.68359375 6.8359375 C-1 9 -1 9 -2 11 C-4.31 11 -6.62 11 -9 11 C-9 9.35 -9 7.7 -9 6 C-10.93109581 5.95710245 -10.93109581 5.95710245 -13 7 C-15.02800831 10.90579378 -16.34108329 14.65114973 -17 19 C-14.69 19.33 -12.38 19.66 -10 20 C-9.95745644 21.99954746 -9.95919217 24.00041636 -10 26 C-12.04698414 28.04698414 -16.30411241 27.70045693 -19 28 C-19.24121582 29.27004883 -19.48243164 30.54009766 -19.73095703 31.84863281 C-20.64129678 36.61587383 -21.57510729 41.37827754 -22.515625 46.13964844 C-22.91742621 48.1905088 -23.31307873 50.24258472 -23.70214844 52.29589844 C-29.03079926 80.36012613 -29.03079926 80.36012613 -37.5625 87.25 C-42.95417791 90.09823531 -49.08851618 89.40551337 -55 89 C-54.67 87.02 -54.34 85.04 -54 83 C-52.9275 83.020625 -51.855 83.04125 -50.75 83.0625 C-47.03197875 82.44407045 -47.03197875 82.44407045 -45.84049988 80.28536987 C-43.43209305 74.54540543 -41.86963487 68.92270952 -40.67578125 62.8203125 C-40.48404831 61.88573212 -40.29231537 60.95115173 -40.09477234 59.98825073 C-39.49097025 57.03570836 -38.90124975 54.08057684 -38.3125 51.125 C-37.71006776 48.14867211 -37.1047585 45.17294689 -36.49809265 42.19747925 C-36.12324894 40.35397214 -35.75140009 38.50985295 -35.38288879 36.66506958 C-35.21568832 35.83345306 -35.04848785 35.00183655 -34.8762207 34.14501953 C-34.7306221 33.41493683 -34.5850235 32.68485413 -34.43501282 31.93264771 C-34 30 -34 30 -33 27 C-34.65 27 -36.3 27 -38 27 C-37.75 25.125 -37.75 25.125 -37 23 C-36.3709375 22.75378906 -35.741875 22.50757813 -35.09375 22.25390625 C-32.00769 20.4057248 -31.79269678 18.1934832 -30.75 14.8125 C-28.43334567 8.42757465 -25.95313628 4.41255733 -20 1 C-13.44578441 -1.75397316 -6.88996833 -0.95300497 0 0 Z " fill="#000000" transform="translate(894,405)"/>
<path d="M0 0 C-0.66 3.63 -1.32 7.26 -2 11 C-4.31 11 -6.62 11 -9 11 C-9.66 9.35 -10.32 7.7 -11 6 C-11.99 6 -12.98 6 -14 6 C-14.20496094 6.84304688 -14.40992188 7.68609375 -14.62109375 8.5546875 C-14.89050781 9.65039062 -15.15992188 10.74609375 -15.4375 11.875 C-15.70433594 12.96554687 -15.97117187 14.05609375 -16.24609375 15.1796875 C-17 18 -17 18 -18 20 C-15.36 20 -12.72 20 -10 20 C-10.33 22.31 -10.66 24.62 -11 27 C-14.96 27.495 -14.96 27.495 -19 28 C-19.25168945 29.25022949 -19.50337891 30.50045898 -19.76269531 31.78857422 C-20.70743871 36.46843826 -21.66465975 41.14567995 -22.62548828 45.82226562 C-23.03802682 47.83883401 -23.44727016 49.85607963 -23.85302734 51.87402344 C-24.44003208 54.79029756 -25.0392177 57.70385371 -25.640625 60.6171875 C-25.81684387 61.50614716 -25.99306274 62.39510681 -26.17462158 63.31100464 C-29.68081224 80.07621784 -29.68081224 80.07621784 -36.125 85.0625 C-36.80820312 85.61035156 -37.49140625 86.15820312 -38.1953125 86.72265625 C-41.77762138 89.25818656 -44.25758652 89.10531778 -48.625 89.0625 C-49.81351563 89.05347656 -51.00203125 89.04445313 -52.2265625 89.03515625 C-53.59941406 89.01775391 -53.59941406 89.01775391 -55 89 C-54.67 87.02 -54.34 85.04 -54 83 C-52.906875 82.95875 -51.81375 82.9175 -50.6875 82.875 C-46.88221797 82.41715957 -46.88221797 82.41715957 -45.42236328 79.60424805 C-43.5918868 74.96584703 -42.56457807 70.33102001 -41.5546875 65.45703125 C-41.33934357 64.45161789 -41.12399963 63.44620453 -40.90213013 62.4103241 C-40.21872532 59.21262989 -39.54647546 56.01271835 -38.875 52.8125 C-38.19414133 49.60208561 -37.51100284 46.39216876 -36.82644653 43.18254089 C-36.40198557 41.18872798 -35.98008577 39.19436775 -35.56100464 37.19941711 C-35.27533127 35.84737434 -35.27533127 35.84737434 -34.98388672 34.46801758 C-34.81750702 33.67559158 -34.65112732 32.88316559 -34.47970581 32.06672668 C-34 30 -34 30 -33 27 C-34.65 27 -36.3 27 -38 27 C-38 25.68 -38 24.36 -38 23 C-37.22269531 22.79761719 -36.44539062 22.59523438 -35.64453125 22.38671875 C-32.75534176 21.21267657 -32.75534176 21.21267657 -31.69921875 18.20703125 C-31.19841797 16.52673828 -31.19841797 16.52673828 -30.6875 14.8125 C-28.1596183 7.67123421 -25.02557 3.40262115 -18.12890625 0.10546875 C-12.19864092 -1.80553151 -6.07263492 -0.69007215 0 0 Z " fill="#000000" transform="translate(1041,405)"/>
<path d="M0 0 C5.61 0 11.22 0 17 0 C17.99 10.56 18.98 21.12 20 32 C26.36905236 24.03868455 30.65671357 16.29859286 31 6 C30.01 5.67 29.02 5.34 28 5 C28.33 3.35 28.66 1.7 29 0 C31.12438339 -0.08078641 33.2496323 -0.13909141 35.375 -0.1875 C36.55835938 -0.22230469 37.74171875 -0.25710938 38.9609375 -0.29296875 C40.46527344 -0.14794922 40.46527344 -0.14794922 42 0 C44 3 44 3 43.83984375 5.23046875 C42.76391644 8.7785267 41.23567375 12.01728172 39.5625 15.3125 C39.03124512 16.36256226 39.03124512 16.36256226 38.48925781 17.43383789 C16.2550874 60.54749487 16.2550874 60.54749487 1.03515625 68.3828125 C-3.1761316 69.6599401 -7.66763648 69.61788269 -12 69 C-12.66 68.34 -13.32 67.68 -14 67 C-13.79296875 64.65234375 -13.79296875 64.65234375 -13.1875 61.9375 C-12.99542969 61.03902344 -12.80335938 60.14054687 -12.60546875 59.21484375 C-12 57 -12 57 -11 56 C-9.33382885 55.95936168 -7.66611905 55.957279 -6 56 C-5.67 57.32 -5.34 58.64 -5 60 C0.70711259 59.28661093 2.85275174 57.39906732 6.4375 52.875 C7.64143484 51.26213852 8.83446748 49.6408276 10 48 C9.34 48 8.68 48 8 48 C7.88930176 46.97640381 7.77860352 45.95280762 7.66455078 44.89819336 C7.24945935 41.07507693 6.82634049 37.25288329 6.40087891 33.4309082 C6.21837266 31.78140702 6.03799997 30.13166824 5.85986328 28.48168945 C5.60238836 26.10040606 5.33707253 23.72010273 5.0703125 21.33984375 C4.99313995 20.61039047 4.91596741 19.88093719 4.8364563 19.12937927 C4.31575845 14.56810677 3.51175012 10.34514795 2 6 C1.34 5.67 0.68 5.34 0 5 C0 3.35 0 1.7 0 0 Z " fill="#000000" transform="translate(722,425)"/>
<path d="M0 0 C7.92 0 15.84 0 24 0 C22 5 22 5 20 6 C19.26493014 8.32196607 18.65660544 10.58232152 18.10546875 12.94921875 C17.93371628 13.66204514 17.76196381 14.37487152 17.58500671 15.10929871 C15.63927202 23.303787 13.96820329 31.55554454 12.3125 39.8125 C11.85179103 42.09963405 11.39001086 44.38653845 10.92607117 46.67301941 C10.64134839 48.07716289 10.35853931 49.48169624 10.07795715 50.88667297 C9.51616893 53.66486959 8.89767556 56.30697333 8 59 C14.69399264 58.75522193 14.69399264 58.75522193 20.875 56.4375 C23.6483741 53.25627677 25.32634877 49.85220284 27 46 C29.31 46 31.62 46 34 46 C33.3598792 52.78528053 31.85425223 58.20107517 30 65 C16.14 65 2.28 65 -12 65 C-11 61 -11 61 -9.05102539 59.17236328 C-6.36632466 56.32883667 -5.98425401 54.05264764 -5.18359375 50.2421875 C-5.04163071 49.58547562 -4.89966766 48.92876373 -4.75340271 48.25215149 C-4.29913721 46.12938468 -3.86729689 44.00284446 -3.4375 41.875 C-3.13430469 40.41953625 -2.83042942 38.96421399 -2.52587891 37.5090332 C-1.66080808 33.34382222 -0.82889168 29.17255645 0 25 C0.21672363 23.93861816 0.43344727 22.87723633 0.65673828 21.78369141 C1.16862299 19.25518413 1.65532332 16.7241344 2.125 14.1875 C2.26623291 13.47899902 2.40746582 12.77049805 2.55297852 12.04052734 C2.95750521 9.92181491 2.95750521 9.92181491 3 7 C1.62094363 5.28201377 1.62094363 5.28201377 0 4 C0 2.68 0 1.36 0 0 Z " fill="#000000" transform="translate(791,408)"/>
<path d="M0 0 C3.73607558 3.73607558 6.14136047 6.74811296 6.90625 12.07421875 C6.83971506 20.56574085 6.29832317 27.644888 2.375 35.375 C2.03597656 36.05175781 1.69695312 36.72851562 1.34765625 37.42578125 C-1.88340242 42.7955478 -6.713333 45.57753368 -12.625 47.375 C-19.29519088 48.19703057 -26.01926032 48.54337053 -31.625 44.375 C-36.94240502 38.62645403 -36.98045684 33.72551186 -36.89453125 26.1484375 C-36.16212493 15.89474903 -32.39427588 8.12317105 -24.625 1.375 C-17.72887095 -3.17644518 -7.45591251 -3.34230561 0 0 Z M-17.42578125 7.55078125 C-22.14854253 14.73491649 -23.76399607 23.56031608 -23.8125 32 C-23.82667969 33.12664062 -23.84085937 34.25328125 -23.85546875 35.4140625 C-23.85293393 38.56226298 -23.85293393 38.56226298 -21.625 41.375 C-18.7542764 42.12637168 -18.7542764 42.12637168 -15.625 41.375 C-9.53650134 36.44621537 -8.03029097 28.81164791 -6.625 21.375 C-5.67032033 12.44691047 -5.67032033 12.44691047 -8.625 4.375 C-12.55154315 3.5260177 -14.74355725 4.59779646 -17.42578125 7.55078125 Z " fill="#000000" transform="translate(434.625,426.625)"/>
<path d="M0 0 C2.21612078 1.43617536 3.61301548 2.8002497 4.796875 5.16796875 C5.3309769 10.03617625 5.30075012 14.03424972 3.296875 18.54296875 C-2.85751375 25.00507694 -10.57100214 26.26308415 -19.203125 27.16796875 C-20.86956837 27.19525022 -22.53685925 27.20452303 -24.203125 27.16796875 C-23.89542793 28.98129029 -23.58183436 30.7936122 -23.265625 32.60546875 C-23.09160156 33.61480469 -22.91757812 34.62414062 -22.73828125 35.6640625 C-22.45561403 38.09671255 -22.45561403 38.09671255 -21.203125 39.16796875 C-14.515965 40.00386375 -11.28461988 38.41662717 -5.890625 34.48046875 C-5.33375 34.04734375 -4.776875 33.61421875 -4.203125 33.16796875 C-2.883125 33.82796875 -1.563125 34.48796875 -0.203125 35.16796875 C-0.203125 39.16796875 -0.203125 39.16796875 -1.7421875 41.01953125 C-8.83943228 47.05351838 -14.02496566 48.61045478 -23.359375 48.4140625 C-27.00400853 48.09866152 -29.26712436 47.36996923 -32.203125 45.16796875 C-36.81137406 39.31424698 -37.86002033 34.52519646 -37.203125 27.16796875 C-35.68255987 18.26009115 -33.17374638 10.52565548 -26.328125 4.35546875 C-18.65085367 -1.01862118 -9.21142054 -3.47878116 0 0 Z M-18.203125 10.16796875 C-21.11235147 15.40868631 -21.11235147 15.40868631 -22.203125 21.16796875 C-15.89102267 20.22816685 -11.42222945 19.14434836 -7.203125 14.16796875 C-6.64389783 11.26218052 -6.8530616 9.16851222 -7.203125 6.16796875 C-8.23945239 4.9378953 -8.23945239 4.9378953 -10.453125 4.79296875 C-14.51045308 5.34624076 -15.67261644 6.98861184 -18.203125 10.16796875 Z " fill="#000000" transform="translate(917.203125,425.83203125)"/>
<path d="M0 0 C0.69931641 -0.01224609 1.39863281 -0.02449219 2.11914062 -0.03710938 C6.53311655 -0.04949659 10.08881584 0.55960817 14.1875 2.1875 C14.04654936 3.8129308 13.89957913 5.43784051 13.75 7.0625 C13.66878906 7.96742188 13.58757812 8.87234375 13.50390625 9.8046875 C13.1875 12.1875 13.1875 12.1875 12.1875 14.1875 C9.8775 14.1875 7.5675 14.1875 5.1875 14.1875 C4.1975 11.8775 3.2075 9.5675 2.1875 7.1875 C-0.4525 7.1875 -3.0925 7.1875 -5.8125 7.1875 C-6.39911468 10.43356681 -6.39911468 10.43356681 -5.8125 14.1875 C-3.79910741 16.61524294 -1.36026247 18.34943489 1.1875 20.1875 C8.7496011 26.05965074 8.7496011 26.05965074 9.48828125 31.3359375 C9.51471227 36.35783146 9.15260951 39.93750971 6.1875 44.1875 C0.42803529 48.62708738 -3.96913955 49.3689373 -11.0625 49.375 C-12.17044922 49.39336914 -12.17044922 49.39336914 -13.30078125 49.41210938 C-18.1834987 49.42502662 -22.17991357 48.73782324 -26.8125 47.1875 C-26.50490822 45.20756459 -26.1912932 43.22856401 -25.875 41.25 C-25.70097656 40.14785156 -25.52695312 39.04570312 -25.34765625 37.91015625 C-24.8125 35.1875 -24.8125 35.1875 -23.8125 34.1875 C-21.81291636 34.14669217 -19.81204746 34.14495644 -17.8125 34.1875 C-17.338125 35.321875 -16.86375 36.45625 -16.375 37.625 C-15.17627917 40.94490166 -15.17627917 40.94490166 -13.8125 42.1875 C-10.35428598 42.43753964 -10.35428598 42.43753964 -6.8125 42.1875 C-4.54951563 40.31786002 -4.54951563 40.31786002 -4.375 37.375 C-5.05010597 32.45637076 -8.02115401 30.54727889 -11.85546875 27.63671875 C-16.39311566 24.04131546 -18.99417478 21.32124794 -19.82421875 15.4609375 C-19.80413824 11.56531772 -18.94295988 8.45716413 -16.8125 5.1875 C-11.32956518 0.73261546 -6.86143698 0.0062207 0 0 Z " fill="#000000" transform="translate(357.8125,424.8125)"/>
<path d="M0 0 C1.0219043 -0.00483398 1.0219043 -0.00483398 2.06445312 -0.00976562 C6.37991422 0.03583483 9.92664058 0.74194506 13.9375 2.3125 C13.79654936 3.9379308 13.64957913 5.56284051 13.5 7.1875 C13.41878906 8.09242188 13.33757812 8.99734375 13.25390625 9.9296875 C12.9375 12.3125 12.9375 12.3125 11.9375 14.3125 C9.6275 14.3125 7.3175 14.3125 4.9375 14.3125 C4.628125 13.343125 4.31875 12.37375 4 11.375 C3.24226658 8.47184208 3.24226658 8.47184208 1.9375 7.3125 C-0.73308851 7.17134839 -3.38682238 7.27002893 -6.0625 7.3125 C-6.48140218 10.10188212 -6.48140218 10.10188212 -6.0625 13.3125 C-3.94352196 15.89500449 -1.56363948 17.88897485 0.98046875 20.0390625 C1.68816406 20.64492188 2.39585937 21.25078125 3.125 21.875 C3.79917969 22.43316406 4.47335937 22.99132812 5.16796875 23.56640625 C8.43292673 26.78811975 9.24196917 29.65942072 9.3125 34.1875 C9.18473703 39.0141012 8.35668666 41.72235401 4.9375 45.3125 C-2.26731107 50.6807906 -11.39988162 50.28582791 -20.0625 49.3125 C-22.46152639 48.76989651 -24.72142591 48.08157822 -27.0625 47.3125 C-26.75490822 45.33256459 -26.4412932 43.35356401 -26.125 41.375 C-25.95097656 40.27285156 -25.77695312 39.17070312 -25.59765625 38.03515625 C-25.0625 35.3125 -25.0625 35.3125 -24.0625 34.3125 C-22.06291636 34.27169217 -20.06204746 34.26995644 -18.0625 34.3125 C-17.588125 35.446875 -17.11375 36.58125 -16.625 37.75 C-15.42627917 41.06990166 -15.42627917 41.06990166 -14.0625 42.3125 C-10.60428598 42.56253964 -10.60428598 42.56253964 -7.0625 42.3125 C-4.79951563 40.44286002 -4.79951563 40.44286002 -4.625 37.5 C-5.21917839 33.17098604 -6.75679325 32.13612451 -10.0625 29.3125 C-11.48126123 28.08575157 -12.89783554 26.8564705 -14.3125 25.625 C-14.99828125 25.04363281 -15.6840625 24.46226562 -16.390625 23.86328125 C-18.52177613 21.8864892 -19.01217082 20.81744199 -19.30078125 17.921875 C-19.41991989 13.33190222 -19.39383676 10.05469435 -17.5 5.8125 C-12.47849987 0.66224345 -6.95553504 -0.16545041 0 0 Z " fill="#000000" transform="translate(320.0625,424.6875)"/>
<path d="M0 0 C6.27 0 12.54 0 19 0 C18.391166 7.33699403 17.22664427 14.361795 15.6796875 21.5546875 C15.22247371 23.73694093 14.76544787 25.91923374 14.30859375 28.1015625 C13.58953172 31.50587953 12.86763189 34.90955796 12.14208984 38.3125 C11.43877783 41.62086453 10.74613718 44.93132669 10.0546875 48.2421875 C9.83392548 49.261987 9.61316345 50.2817865 9.38571167 51.33248901 C9.09012863 52.75514572 9.09012863 52.75514572 8.78857422 54.20654297 C8.52329422 55.45369583 8.52329422 55.45369583 8.25265503 56.7260437 C7.98123128 59.16892299 8.05148133 60.73047766 9 63 C10.485 63.495 10.485 63.495 12 64 C11.67 65.32 11.34 66.64 11 68 C4.73 68 -1.54 68 -8 68 C-6.87550863 59.00406902 -6.87550863 59.00406902 -5.96850586 54.78076172 C-5.76837387 53.83973602 -5.56824188 52.89871033 -5.36204529 51.9291687 C-5.04168053 50.44442551 -5.04168053 50.44442551 -4.71484375 48.9296875 C-4.26222295 46.79560405 -3.80975351 44.6614885 -3.35742188 42.52734375 C-2.64637543 39.1914062 -1.93340037 35.85590175 -1.2175293 32.52099609 C-0.52387758 29.28332018 0.16231729 26.04413163 0.84765625 22.8046875 C1.06325699 21.81081024 1.27885773 20.81693298 1.50099182 19.79293823 C2.48603414 15.11865193 3.278276 10.80897288 3 6 C2.01 5.67 1.02 5.34 0 5 C0 3.35 0 1.7 0 0 Z " fill="#000000" transform="translate(1204,405)"/>
<path d="M0 0 C0.70769531 -0.01224609 1.41539063 -0.02449219 2.14453125 -0.03710938 C6.25932929 -0.04860322 9.42660538 0.3528062 13.125 2.1875 C12.81730293 4.00082154 12.50370936 5.81314345 12.1875 7.625 C12.01347656 8.63433594 11.83945313 9.64367187 11.66015625 10.68359375 C11.125 13.1875 11.125 13.1875 10.125 14.1875 C8.60571962 14.25929964 7.08332518 14.27142007 5.5625 14.25 C4.73621094 14.24097656 3.90992188 14.23195313 3.05859375 14.22265625 C2.42050781 14.21105469 1.78242187 14.19945312 1.125 14.1875 C0.795 11.8775 0.465 9.5675 0.125 7.1875 C-2.16028995 6.59981617 -2.16028995 6.59981617 -4.875 7.1875 C-11.34003791 13.65253791 -13.65048552 24.08632227 -14.04296875 33.00390625 C-13.88259476 36.04355271 -13.49463316 37.65682318 -11.875 40.1875 C-7.29564255 40.65478137 -4.72864833 40.40649402 -1.125 37.625 C-0.57328125 37.14933594 -0.0215625 36.67367187 0.546875 36.18359375 C1.32804687 35.69052734 1.32804687 35.69052734 2.125 35.1875 C5.125 36.1875 5.125 36.1875 6.3125 38.25 C6.580625 38.889375 6.84875 39.52875 7.125 40.1875 C-0.26631034 47.20361692 -5.60309426 49.81288097 -15.95703125 49.6328125 C-20.57302587 48.92836352 -23.11485086 46.86486794 -25.875 43.1875 C-29.76127837 35.92184913 -28.34892732 27.04187385 -26.1875 19.4375 C-23.13889747 10.47227166 -19.38278236 5.49478731 -10.875 1.1875 C-7.21148419 -0.03367194 -3.81447028 0.00343646 0 0 Z " fill="#000000" transform="translate(1274.875,424.8125)"/>
<path d="M0 0 C5.94 0 11.88 0 18 0 C18 1.98 18 3.96 18 6 C18.43828125 5.566875 18.8765625 5.13375 19.328125 4.6875 C24.68951153 -0.0200589 28.60701787 -0.57735798 35.65625 -0.2109375 C36.4296875 -0.14132812 37.203125 -0.07171875 38 0 C37.85866501 1.77119803 37.71176792 3.54195287 37.5625 5.3125 C37.48128906 6.29863281 37.40007812 7.28476562 37.31640625 8.30078125 C37 11 37 11 36 14 C33.03 14 30.06 14 27 14 C26.67 12.35 26.34 10.7 26 9 C21.60913131 10.69647199 19.22961105 12.41189431 16.98144531 16.57250977 C14.74139377 22.11301537 13.86456299 28.08816591 12.75 33.9375 C12.48031133 35.30296095 12.20948756 36.66819823 11.9375 38.03320312 C11.28052305 41.35328307 10.63875104 44.67636544 10 48 C5.38 48 0.76 48 -4 48 C-3.2466278 39.26469704 -1.3653955 30.83115979 0.49145508 22.27294922 C0.90604169 20.35474114 1.31442618 18.43519591 1.72265625 16.515625 C1.96765869 15.38415039 2.21266113 14.25267578 2.46508789 13.08691406 C2.94653471 10.30854185 3.10719469 7.81000875 3 5 C1.68 5 0.36 5 -1 5 C-0.67 3.35 -0.34 1.7 0 0 Z " fill="#000000" transform="translate(146,425)"/>
<path d="M0 0 C5.94 0 11.88 0 18 0 C17.35356002 9.01300805 15.73062011 17.50560859 13.72851562 26.30273438 C12.47512556 32.01424654 11.72684408 37.15166167 12 43 C13.485 43.495 13.485 43.495 15 44 C15 45.32 15 46.64 15 48 C8.4 48 1.8 48 -5 48 C-4.20880397 43.87490924 -3.41705689 39.74992548 -2.625 35.625 C-2.40328125 34.46871094 -2.1815625 33.31242187 -1.953125 32.12109375 C-1.73398438 30.98027344 -1.51484375 29.83945312 -1.2890625 28.6640625 C-1.07266113 27.53693848 -0.85625977 26.40981445 -0.63330078 25.24853516 C0.09486422 21.51339117 0.85941036 17.78647843 1.64257812 14.0625 C2.11158636 11.35609184 2.14410862 8.73806379 2 6 C1.01 5.67 0.02 5.34 -1 5 C-0.67 3.35 -0.34 1.7 0 0 Z " fill="#000000" transform="translate(1226,425)"/>
<path d="M0 0 C6.27 0 12.54 0 19 0 C18.27273666 9.54766231 16.35359241 18.79329157 14.43310547 28.15380859 C14.00968296 30.22644993 13.59429965 32.30058131 13.1796875 34.375 C12.92944824 35.59960938 12.67920898 36.82421875 12.42138672 38.0859375 C11.72720328 40.92992054 11.72720328 40.92992054 13 43 C14.485 43.495 14.485 43.495 16 44 C16 45.32 16 46.64 16 48 C9.4 48 2.8 48 -4 48 C-2.47370055 38.52125249 -0.64617851 29.13630518 1.3203125 19.74023438 C1.536875 18.68255859 1.7534375 17.62488281 1.9765625 16.53515625 C2.17330566 15.590354 2.37004883 14.64555176 2.57275391 13.67211914 C2.98990451 11.06314008 3.07829849 8.63674661 3 6 C2.01 5.67 1.02 5.34 0 5 C0 3.35 0 1.7 0 0 Z " fill="#000000" transform="translate(376,425)"/>
<path d="M0 0 C6.27 0 12.54 0 19 0 C18.37720186 5.60518322 17.75979822 10.62503033 16.5546875 16.046875 C16.14669922 17.93212891 16.14669922 17.93212891 15.73046875 19.85546875 C15.30043631 21.81319634 14.87032508 23.77091576 14.43310547 25.72705078 C14.00658659 27.64424125 13.59297092 29.5642879 13.1796875 31.484375 C12.92944824 32.61584961 12.67920898 33.74732422 12.42138672 34.91308594 C12.00546296 37.95998049 12.19297922 40.05626293 13 43 C14.485 43.495 14.485 43.495 16 44 C15.67 45.32 15.34 46.64 15 48 C8.73 48 2.46 48 -4 48 C-3.37985616 42.41870547 -2.76261848 37.36593144 -1.58984375 31.953125 C-1.32236328 30.69628906 -1.05488281 29.43945312 -0.77929688 28.14453125 C-0.35622834 26.18722576 0.06685599 24.22992326 0.49145508 22.27294922 C0.90604169 20.35474114 1.31442618 18.43519591 1.72265625 16.515625 C1.96765869 15.38415039 2.21266113 14.25267578 2.46508789 13.08691406 C2.94653471 10.30854185 3.10719469 7.81000875 3 5 C1.68 5 0.36 5 -1 5 C-0.67 3.35 -0.34 1.7 0 0 Z " fill="#000000" transform="translate(275,425)"/>
<path d="M0 0 C6.27 0 12.54 0 19 0 C18.20923988 4.29183546 17.41741929 8.58347083 16.625 12.875 C16.29242187 14.68097656 16.29242187 14.68097656 15.953125 16.5234375 C14.81527613 22.68120787 13.65354048 28.82844522 12.35742188 34.95507812 C11.88548384 37.65518264 11.8562053 40.26790062 12 43 C13.485 43.495 13.485 43.495 15 44 C15 45.32 15 46.64 15 48 C8.4 48 1.8 48 -5 48 C-4.24203125 44.45765625 -4.24203125 44.45765625 -3.46875 40.84375 C-2.98032289 38.53393082 -2.49467168 36.2235441 -2.00927734 33.91308594 C-1.67265249 32.31807151 -1.33318327 30.72365445 -0.99072266 29.12988281 C-0.49657837 26.82771789 -0.01299109 24.52353824 0.46875 22.21875 C0.62186646 21.51633179 0.77498291 20.81391357 0.93273926 20.09020996 C1.91808802 15.30847869 2.13403764 10.88279977 2 6 C1.01 5.67 0.02 5.34 -1 5 C-0.67 3.35 -0.34 1.7 0 0 Z " fill="#000000" transform="translate(832,425)"/>
<path d="M0 0 C4.29 0 8.58 0 13 0 C11.125 10.875 11.125 10.875 10 12 C7.98035801 12.07244053 5.95832876 12.08377188 3.9375 12.0625 C2.83277344 12.05347656 1.72804688 12.04445313 0.58984375 12.03515625 C-0.69212891 12.01775391 -0.69212891 12.01775391 -2 12 C-1.85831863 10.56208484 -1.71148957 9.1246763 -1.5625 7.6875 C-1.48128906 6.88699219 -1.40007812 6.08648437 -1.31640625 5.26171875 C-1 3 -1 3 0 0 Z " fill="#000000" transform="translate(1235,407)"/>
<path d="M0 0 C4.29 0 8.58 0 13 0 C12.34 3.96 11.68 7.92 11 12 C6.71 12 2.42 12 -2 12 C-1.34 8.04 -0.68 4.08 0 0 Z " fill="#000000" transform="translate(841,407)"/>
<path d="M0 0 C1.65322266 0.01740234 1.65322266 0.01740234 3.33984375 0.03515625 C4.99693359 0.04869141 4.99693359 0.04869141 6.6875 0.0625 C7.54214844 0.07410156 8.39679688 0.08570313 9.27734375 0.09765625 C9.13566238 1.53557141 8.98883332 2.97297995 8.83984375 4.41015625 C8.75863281 5.21066406 8.67742187 6.01117188 8.59375 6.8359375 C8.27734375 9.09765625 8.27734375 9.09765625 7.27734375 12.09765625 C2.98734375 12.09765625 -1.30265625 12.09765625 -5.72265625 12.09765625 C-3.65948421 0.1312584 -3.65948421 0.1312584 0 0 Z " fill="#000000" transform="translate(287.72265625,406.90234375)"/>
<path d="M0 0 C3.96 0 7.92 0 12 0 C11.125 9.75 11.125 9.75 10 12 C6.04 12 2.08 12 -2 12 C-1.125 3.375 -1.125 3.375 0 0 Z " fill="#000000" transform="translate(386,407)"/>
</svg>
