<svg width="1337" height="468" viewBox="0 0 1337 468" fill="none" xmlns="http://www.w3.org/2000/svg">
<g filter="url(#filter0_d_2070_3305)">
<path d="M489.481 193.817L444.111 283H426.447L380.903 193.817H404.108L435.452 254.773L466.277 193.817H489.481ZM608.087 283H587.307V254.6H532.585V233.82H587.307V221.351C587.307 216.849 585.806 214.598 582.804 214.598H523.926C521.04 214.598 519.597 216.849 519.597 221.351V283H498.816V221.351C498.816 213.847 501.125 207.382 505.743 201.956C510.477 196.53 516.537 193.817 523.926 193.817H582.804C590.308 193.817 596.369 196.53 600.987 201.956C605.72 207.382 608.087 213.847 608.087 221.351V283ZM726.478 255.466C726.478 262.97 724.226 269.377 719.724 274.688C714.875 280.229 708.756 283 701.368 283H624.48V262.22H701.368C704.254 262.22 705.697 259.968 705.697 255.466C705.697 250.963 704.254 248.712 701.368 248.712H645.434C638.045 248.712 631.926 245.941 627.078 240.4C622.46 235.205 620.151 228.855 620.151 221.351C620.151 213.847 622.517 207.382 627.251 201.956C631.984 196.53 638.045 193.817 645.434 193.817H722.322V214.598H645.434C642.548 214.598 641.104 216.849 641.104 221.351C641.104 225.738 642.548 227.932 645.434 227.932H701.368C708.756 227.932 714.875 230.702 719.724 236.244C724.226 241.554 726.478 247.962 726.478 255.466ZM839.742 214.598H799.566V283H778.786V214.598H738.61V193.817H839.742V214.598ZM961.127 254.773C961.127 262.854 958.298 269.608 952.641 275.034C946.984 280.345 940.115 283 932.034 283H879.736C871.655 283 864.786 280.345 859.129 275.034C853.472 269.608 850.644 262.854 850.644 254.773V222.044C850.644 213.963 853.472 207.267 859.129 201.956C864.786 196.53 871.655 193.817 879.736 193.817H932.034C940.115 193.817 946.984 196.53 952.641 201.956C958.298 207.267 961.127 213.963 961.127 222.044V254.773ZM940.346 254.773V222.044C940.346 217.08 937.575 214.598 932.034 214.598H879.736C874.195 214.598 871.424 217.08 871.424 222.044V254.773C871.424 259.737 874.195 262.22 879.736 262.22H932.034C937.575 262.22 940.346 259.737 940.346 254.773ZM1077.93 283H1049.53L1005.02 232.954H1058.53C1062.34 232.954 1064.25 229.894 1064.25 223.776C1064.25 217.657 1062.34 214.598 1058.53 214.598H994.112V283H973.331V193.817H1059.74C1067.71 193.817 1074 196.934 1078.62 203.168C1082.89 208.825 1085.03 215.694 1085.03 223.776C1085.03 231.857 1082.89 238.726 1078.62 244.383C1074 250.617 1067.71 253.734 1059.74 253.734H1051.78L1077.93 283ZM1206.47 283H1185.69V254.6H1130.97V233.82H1185.69V221.351C1185.69 216.849 1184.19 214.598 1181.19 214.598H1122.31C1119.43 214.598 1117.98 216.849 1117.98 221.351V283H1097.2V221.351C1097.2 213.847 1099.51 207.382 1104.13 201.956C1108.86 196.53 1114.92 193.817 1122.31 193.817H1181.19C1188.69 193.817 1194.75 196.53 1199.37 201.956C1204.11 207.382 1206.47 213.847 1206.47 221.351V283ZM1317.59 283H1290.58L1266.68 254.254L1242.78 283H1215.77L1253.17 237.802L1216.8 193.817H1243.82L1266.68 221.524L1289.54 193.817H1316.55L1280.19 237.802L1317.59 283Z" fill="#57405B"/>
</g>
<g filter="url(#filter1_d_2070_3305)">
<path d="M133.792 427.96L188.917 365.216C191.333 362.466 195.626 362.501 197.997 365.29L251.203 427.886C252.343 429.227 254.014 430 255.775 430H359.132C364.229 430 367.004 424.047 363.728 420.143L268.25 306.372C266.372 304.135 266.378 300.87 268.265 298.64L363.647 185.875C366.946 181.975 364.174 176 359.066 176H255.645C253.96 176 252.352 176.709 251.216 177.953L194.154 240.406C191.695 243.097 187.425 242.992 185.102 240.184L133.8 178.175C132.66 176.798 130.965 176 129.177 176H24.9727C19.8585 176 17.0889 181.988 20.4006 185.885L116.211 298.63C118.109 300.864 118.116 304.142 116.226 306.383L20.3197 420.132C17.0302 424.034 19.8036 430 24.9069 430H129.285C131.011 430 132.653 429.257 133.792 427.96Z" fill="#F6AA3F"/>
</g>
<g filter="url(#filter2_d_2070_3305)">
<path d="M31.2835 45.0655L186.43 224.223C188.835 227 193.147 226.984 195.531 224.19L351.059 41.8943C354.381 37.9995 351.614 32 346.494 32H243.454C241.592 32 239.834 32.8652 238.699 34.3417L200.033 84.6067C197.702 87.6378 193.167 87.7434 190.697 84.8241L147.865 34.204C146.686 32.8111 144.938 32.0302 143.114 32.0821L35.6485 35.1401C30.5901 35.284 27.9708 41.24 31.2835 45.0655Z" fill="url(#paint0_linear_2070_3305)"/>
</g>
<defs>
<filter id="filter0_d_2070_3305" x="362.015" y="193.817" width="974.47" height="126.966" filterUnits="userSpaceOnUse" color-interpolation-filters="sRGB">
<feFlood flood-opacity="0" result="BackgroundImageFix"/>
<feColorMatrix in="SourceAlpha" type="matrix" values="0 0 0 0 0 0 0 0 0 0 0 0 0 0 0 0 0 0 127 0" result="hardAlpha"/>
<feOffset dy="18.8913"/>
<feGaussianBlur stdDeviation="9.44567"/>
<feComposite in2="hardAlpha" operator="out"/>
<feColorMatrix type="matrix" values="0 0 0 0 0 0 0 0 0 0 0 0 0 0 0 0 0 0 0.1 0"/>
<feBlend mode="normal" in2="BackgroundImageFix" result="effect1_dropShadow_2070_3305"/>
<feBlend mode="normal" in="SourceGraphic" in2="effect1_dropShadow_2070_3305" result="shape"/>
</filter>
<filter id="filter1_d_2070_3305" x="0.00709534" y="176" width="384.025" height="291.783" filterUnits="userSpaceOnUse" color-interpolation-filters="sRGB">
<feFlood flood-opacity="0" result="BackgroundImageFix"/>
<feColorMatrix in="SourceAlpha" type="matrix" values="0 0 0 0 0 0 0 0 0 0 0 0 0 0 0 0 0 0 127 0" result="hardAlpha"/>
<feOffset dy="18.8913"/>
<feGaussianBlur stdDeviation="9.44567"/>
<feComposite in2="hardAlpha" operator="out"/>
<feColorMatrix type="matrix" values="0 0 0 0 0 0 0 0 0 0 0 0 0 0 0 0 0 0 0.25 0"/>
<feBlend mode="normal" in2="BackgroundImageFix" result="effect1_dropShadow_2070_3305"/>
<feBlend mode="normal" in="SourceGraphic" in2="effect1_dropShadow_2070_3305" result="shape"/>
</filter>
<filter id="filter2_d_2070_3305" x="10.9212" y="32" width="360.478" height="232.078" filterUnits="userSpaceOnUse" color-interpolation-filters="sRGB">
<feFlood flood-opacity="0" result="BackgroundImageFix"/>
<feColorMatrix in="SourceAlpha" type="matrix" values="0 0 0 0 0 0 0 0 0 0 0 0 0 0 0 0 0 0 127 0" result="hardAlpha"/>
<feOffset dy="18.8913"/>
<feGaussianBlur stdDeviation="9.44567"/>
<feComposite in2="hardAlpha" operator="out"/>
<feColorMatrix type="matrix" values="0 0 0 0 0 0 0 0 0 0 0 0 0 0 0 0 0 0 0.1 0"/>
<feBlend mode="normal" in2="BackgroundImageFix" result="effect1_dropShadow_2070_3305"/>
<feBlend mode="normal" in="SourceGraphic" in2="effect1_dropShadow_2070_3305" result="shape"/>
</filter>
<linearGradient id="paint0_linear_2070_3305" x1="23" y1="130.75" x2="359.5" y2="130.75" gradientUnits="userSpaceOnUse">
<stop stop-color="#BD31D6"/>
<stop offset="1" stop-color="#182C88"/>
</linearGradient>
</defs>
</svg>
